<svg xmlns="http://www.w3.org/2000/svg" viewBox="0 0 24 24" fill="currentColor">
  <ellipse cx="12" cy="5" rx="9" ry="3"/>
  <path d="M3 5v14c0 1.66 4.03 3 9 3s9-1.34 9-3V5c0-1.66-4.03-3-9-3S3 3.34 3 5z" fill="none" stroke="currentColor" stroke-width="1.5"/>
  <path d="M3 9c0 1.66 4.03 3 9 3s9-1.34 9-3" fill="none" stroke="currentColor" stroke-width="1.5"/>
  <path d="M3 14c0 1.66 4.03 3 9 3s9-1.34 9-3" fill="none" stroke="currentColor" stroke-width="1.5"/>
  <path d="M17 13v3l-2-1.5L13 16v-3"/>
</svg>
